<?xml version="1.0" encoding="utf-8"?>
<!-- Generator: Adobe Illustrator 17.1.0, SVG Export Plug-In . SVG Version: 6.00 Build 0)  -->
<!DOCTYPE svg PUBLIC "-//W3C//DTD SVG 1.1//EN" "http://www.w3.org/Graphics/SVG/1.1/DTD/svg11.dtd">
<svg version="1.1" id="Layer_2" xmlns="http://www.w3.org/2000/svg" xmlns:xlink="http://www.w3.org/1999/xlink" x="0px" y="0px"
	 viewBox="0 0 3604.432 1561" enable-background="new 0 0 3604.432 1561" xml:space="preserve">
<g>
	<path fill="#0071BB" d="M9.932,738V538h143l-93-106c0,0-104-98-38-210c0,0,22-32,72-44c0,0,24-6,50-5s241-0.112,241-0.112V374h-140
		l102,119c0,0,46,41,47,116s-35,104-60,113s-38,18-84,16H9.932z"/>
	<path fill="#0071BB" d="M972.003,566c0,0-4.071-47-0.071-219s-162-174.112-162-174.112h-181c-180,6.888-169,181.112-169,181.112
		v223c14,172,169,161.282,169,161.282s-15,5.718,171.536,0S972.003,566,972.003,566z M761.932,539h-91V374h91V539z"/>
	<path fill="#0071BB" d="M1410.932,375V172.888h-191c0,0-124-4.888-162,105.112c0,0-13,36-10,58s-0.449,232-0.449,232
		s-9.551,160,162.449,168s201,0,201,0V537h-154V375H1410.932z"/>
	<path fill="#0071BB" d="M1996.932,739.556h-211V374h-83v365.556h-208V0h209v172.855l138.5,2.145c0,0,154.5,6,154.5,168
		S1996.932,739.556,1996.932,739.556z"/>
	<path fill="#0071BB" d="M1786.998,821.444h211V1187h83V821.444h208V1561h-209v-172.855l-138.5-2.145c0,0-154.5-6-154.5-168
		S1786.998,821.444,1786.998,821.444z"/>
	<rect x="2079.009" y="174.121" fill="#0071BB" width="209.99" height="565.435"/>
	<rect x="1494.932" y="822.107" fill="#0071BB" width="209.99" height="565.435"/>
	<path fill="#0071BB" d="M2372.994,538.603v200.953h209.99V538.603H2372.994z M2542.485,697.595h-127.494V579.101h127.494V697.595z"
		/>
	<path fill="#0071BB" d="M2842.932,173.667c-181.333-4.667-177.333,168.667-177.333,168.667v397.222h211.333V374.333h137.333
		V173.667H2842.932z M2970.932,333.667h-136V697h-127.333V335.667c0,0,0-120,131.667-120c131.667,0,131.667,0,131.667,0V333.667z"/>
	<path fill="#0071BB" d="M3600.932,573.667V173.574h-210.667v362.759h-82.667V173.574h-210.667V581
		c8.667,155.333,156.667,158.556,156.667,158.556s-10,2.111,170.667,0C3604.932,737.444,3600.932,573.667,3600.932,573.667z
		 M3426.265,697c-140,1.333-156.667,0-156.667,0s-126.667,8-130.667-124s0-356.667,0-356.667h125.333L3264.932,579h168.667V216.333
		h124.667v356C3558.265,572.333,3566.265,695.667,3426.265,697z"/>
	<path fill="#0071BB" d="M444.09,1023.078v-200.99h271.956c0,0,125.524,0,113.525,140.993c0,0,0,52.497-34.498,88.496
		L679.578,1185.07h143.993v202.49H561.084c0,0-158.992-7.5-116.994-172.491c0,0,0-23.999,38.998-71.996l103.495-119.994H444.09z"/>
	<path fill="#0071BB" d="M1410.644,1213.969c0,0-4.071-47-0.071-219s-162-174.112-162-174.112h-181
		c-180,6.888-169,181.112-169,181.112v223c14,172,169,161.282,169,161.282s-15,5.718,171.536,0S1410.644,1213.969,1410.644,1213.969
		z M1200.573,1186.969h-91v-165h91V1186.969z"/>
	<path fill="#231F20" stroke="#FFFFFF" stroke-width="7" stroke-miterlimit="10" d="M2984.537,822.001
		c-107.914,0-195.396,87.482-195.396,195.396s87.482,195.396,195.396,195.396s195.396-87.482,195.396-195.396
		S3092.451,822.001,2984.537,822.001z M2984.537,1177.792c-88.584,0-160.396-71.812-160.396-160.396s71.812-160.396,160.396-160.396
		c88.584,0,160.396,71.812,160.396,160.396S3073.121,1177.792,2984.537,1177.792z"/>
	<path fill="#00A65D" stroke="#FFFFFF" stroke-width="7" stroke-miterlimit="10" d="M3194.537,998.001
		c-107.914,0-195.396,87.482-195.396,195.396c0,107.914,87.482,195.396,195.396,195.396s195.396-87.482,195.396-195.396
		C3389.932,1085.482,3302.451,998.001,3194.537,998.001z M3194.537,1353.792c-88.584,0-160.396-71.812-160.396-160.396
		c0-88.584,71.812-160.396,160.396-160.396c88.584,0,160.396,71.812,160.396,160.396
		C3354.932,1281.98,3283.121,1353.792,3194.537,1353.792z"/>
	<path fill="#FBAF17" stroke="#FFFFFF" stroke-width="7" stroke-miterlimit="10" d="M2774.537,998.001
		c-107.914,0-195.396,87.482-195.396,195.396c0,107.914,87.482,195.396,195.396,195.396s195.396-87.482,195.396-195.396
		C2969.932,1085.482,2882.451,998.001,2774.537,998.001z M2774.537,1353.792c-88.584,0-160.396-71.812-160.396-160.396
		c0-88.584,71.812-160.396,160.396-160.396c88.584,0,160.396,71.812,160.396,160.396
		C2934.932,1281.98,2863.121,1353.792,2774.537,1353.792z"/>
	<path fill="#EE1947" stroke="#FFFFFF" stroke-width="7" stroke-miterlimit="10" d="M3405.537,822.001
		c-107.914,0-195.396,87.482-195.396,195.396s87.482,195.396,195.396,195.396s195.396-87.482,195.396-195.396
		S3513.451,822.001,3405.537,822.001z M3405.537,1177.792c-88.584,0-160.396-71.812-160.396-160.396s71.812-160.396,160.396-160.396
		c88.584,0,160.396,71.812,160.396,160.396S3494.121,1177.792,3405.537,1177.792z"/>
	<path fill="#0089CF" stroke="#FFFFFF" stroke-width="7" stroke-miterlimit="10" d="M2565.537,822.001
		c-107.914,0-195.396,87.482-195.396,195.396s87.482,195.396,195.396,195.396s195.396-87.482,195.396-195.396
		S2673.451,822.001,2565.537,822.001z M2565.537,1177.792c-88.584,0-160.396-71.812-160.396-160.396s71.812-160.396,160.396-160.396
		c88.584,0,160.396,71.812,160.396,160.396S2654.121,1177.792,2565.537,1177.792z"/>
</g>
</svg>
